<svg viewBox="0 0 2000 1416" xmlns="http://www.w3.org/2000/svg" font-family="Helvetica, Arial, sans-serif">
  <defs>
    <style>
      .scr { mix-blend-mode: screen; }
      .h   { font-weight:700; fill:#1E8597; letter-spacing:1.3px; }
      .body{ fill:#5C6672; }
    </style>
    <linearGradient id="gHead" x1="0" y1="0" x2="1" y2="1">
      <stop offset="0" stop-color="#26407E"/>
      <stop offset="0.55" stop-color="#2E5396"/>
      <stop offset="1" stop-color="#356BA8"/>
    </linearGradient>
    <linearGradient id="gTealBlue" x1="0" y1="0" x2="1" y2="1">
      <stop offset="0" stop-color="#2AB7C9"/><stop offset="1" stop-color="#4569A8"/>
    </linearGradient>
    <linearGradient id="gImg" x1="0" y1="0" x2="1" y2="1">
      <stop offset="0" stop-color="#2AA8BD"/><stop offset="0.55" stop-color="#3C72B0"/><stop offset="1" stop-color="#6E5AA8"/>
    </linearGradient>
    <filter id="shadow" x="-20%" y="-20%" width="140%" height="140%">
      <feDropShadow dx="0" dy="3" stdDeviation="5" flood-color="#1E3A4A" flood-opacity="0.12"/>
    </filter>
    <clipPath id="hdrClip"><rect x="0" y="0" width="2000" height="250"/></clipPath>
    <marker id="ar" markerWidth="10" markerHeight="10" refX="8" refY="3" orient="auto"><path d="M0,0 L8,3 L0,6 z" fill="#2B3A5C"/></marker>
    <marker id="arT" markerWidth="10" markerHeight="10" refX="8" refY="3" orient="auto"><path d="M0,0 L8,3 L0,6 z" fill="#2AA8BD"/></marker>
  </defs>

  <!-- backgrounds -->
  <rect x="0" y="0" width="2000" height="1416" fill="#EBEEF2"/>

  <!-- ============ BLUE HEADER with large blended circles ============ -->
  <rect x="0" y="0" width="2000" height="250" fill="url(#gHead)"/>
  <g clip-path="url(#hdrClip)" class="scr">
    <circle cx="240"  cy="120" r="220" fill="#5AC8E0" opacity="0.5"/>
    <circle cx="560"  cy="40"  r="210" fill="#7DA8E8" opacity="0.5"/>
    <circle cx="840"  cy="170" r="250" fill="#9B8FD6" opacity="0.5"/>
    <circle cx="1140" cy="60"  r="220" fill="#4FB6D6" opacity="0.5"/>
    <circle cx="1430" cy="160" r="240" fill="#6E8FD8" opacity="0.5"/>
    <circle cx="1730" cy="70"  r="220" fill="#8FB0E6" opacity="0.5"/>
    <circle cx="1980" cy="170" r="210" fill="#5AC8E0" opacity="0.5"/>
    <circle cx="120"  cy="210" r="180" fill="#7DA8E8" opacity="0.5"/>
    <circle cx="700"  cy="210" r="130" fill="#B7E2EE" opacity="0.55"/>
    <circle cx="1280" cy="215" r="140" fill="#C3CBF0" opacity="0.5"/>
    <circle cx="1880" cy="220" r="130" fill="#A9D8E8" opacity="0.5"/>
  </g>

  <!-- logo + url over header -->
  <g>
    <circle cx="54" cy="54" r="11" fill="#7FE3F0" class="scr" opacity="0.95"/>
    <circle cx="66" cy="54" r="11" fill="#B7C7F2" class="scr" opacity="0.95"/>
    <circle cx="60" cy="44" r="11" fill="#ffffff" class="scr" opacity="0.9"/>
    <text x="84" y="52" font-size="23" font-weight="700" fill="#ffffff">Utrecht University</text>
    <text x="84" y="69" font-size="11" font-weight="600" fill="#C7D6E8" letter-spacing="3">FACULTY OF SCIENCE</text>
  </g>
  <text x="1960" y="52" font-size="14" font-weight="600" fill="#ffffff" text-anchor="end">www.uu.nl</text>

  <!-- centred title -->
  <text x="1000" y="150" font-size="60" font-weight="800" fill="#ffffff" text-anchor="middle">Threshold, Not Rate</text>
  <text x="1000" y="200" font-size="34" font-weight="600" fill="#DCE6F4" text-anchor="middle">Cart-Pole Control on a Network of Analog Spiking Neurons</text>
  <text x="1000" y="231" font-size="16" fill="#BFD0E6" text-anchor="middle">Felix [Surname]&#185;,&#160;&#160;Jochem [Surname]&#178;,&#160;&#160;Vincent [Surname]&#179;&#160;&#160;&#183;&#160;&#160;Experimental Research Project (NS-205B), BSc Physics, Utrecht University</text>

  <!-- seam guide (very faint) -->
  <line x1="1000" y1="250" x2="1000" y2="1352" stroke="#DfE4EA" stroke-width="2"/>

  <!-- =====================================================================
       LEFT  A1  PANEL  (x 40 .. 960)
       columns: col1 40-488 , col2 512-960
  ====================================================================== -->

  <!-- SCIENTIFIC ABSTRACT (col1) -->
  <text x="40" y="300" class="h" font-size="18">SCIENTIFIC ABSTRACT</text>
  <rect x="40" y="311" width="448" height="3" fill="#2AA8BD"/>
  <text x="40" y="340" font-size="13.5" class="body">
    <tspan x="40" dy="0">A cart-pole is balanced by a small network of physical</tspan>
    <tspan x="40" dy="19">analog leaky integrate-and-fire (LIF) neurons. Instead of</tspan>
    <tspan x="40" dy="19">the neuron's linear regime, each neuron is read as a single</tspan>
    <tspan x="40" dy="19">bit &#8212; firing or silent &#8212; so its threshold becomes a sign()</tspan>
    <tspan x="40" dy="19">activation. Control stays robust to the noisy, low-resolution</tspan>
    <tspan x="40" dy="19">spike rates of analog hardware, and just three neurons</tspan>
    <tspan x="40" dy="19">are enough to stabilise the pole.</tspan>
  </text>
  <rect x="40" y="470" width="448" height="58" rx="8" fill="url(#gTealBlue)" filter="url(#shadow)"/>
  <text x="60" y="497" font-size="14.5" font-weight="700" fill="#ffffff">Key idea: one bit per neuron</text>
  <text x="60" y="517" font-size="14.5" fill="#E6F4F7">makes control immune to spike-rate noise.</text>

  <!-- KEY SPECS (col1) -->
  <text x="40" y="566" class="h" font-size="18">KEY SPECS</text>
  <rect x="40" y="577" width="448" height="3" fill="#2AA8BD"/>
  <g>
    <rect x="40" y="592" width="448" height="32" rx="16" fill="#EAF6F8" stroke="#2AA8BD" stroke-width="1.5"/>
    <circle cx="62" cy="608" r="4.5" fill="#2AA8BD"/><text x="78" y="613" font-size="13.5" font-weight="600" fill="#1E8597">3 Lu.i LIF neurons, fully connected (3&#8211;3&#8211;1)</text>
    <rect x="40" y="632" width="448" height="32" rx="16" fill="#EAF6F8" stroke="#2AA8BD" stroke-width="1.5"/>
    <circle cx="62" cy="648" r="4.5" fill="#2AA8BD"/><text x="78" y="653" font-size="13.5" font-weight="600" fill="#1E8597">1-bit per-neuron readout (sign activation)</text>
    <rect x="40" y="672" width="448" height="32" rx="16" fill="#EAF6F8" stroke="#2AA8BD" stroke-width="1.5"/>
    <circle cx="62" cy="688" r="4.5" fill="#2AA8BD"/><text x="78" y="693" font-size="13.5" font-weight="600" fill="#1E8597">rate code about baseline: 10 &#177; 5 Hz</text>
    <rect x="40" y="712" width="448" height="32" rx="16" fill="#EAF6F8" stroke="#2AA8BD" stroke-width="1.5"/>
    <circle cx="62" cy="728" r="4.5" fill="#2AA8BD"/><text x="78" y="733" font-size="13.5" font-weight="600" fill="#1E8597">two-level (bang-bang) force output</text>
  </g>

  <!-- INTRODUCTION (col2) -->
  <text x="512" y="300" class="h" font-size="18">INTRODUCTION</text>
  <rect x="512" y="311" width="448" height="3" fill="#2AA8BD"/>
  <text x="512" y="340" font-size="13.5" class="body">
    <tspan x="512" dy="0">Neuromorphic computing emulates neural dynamics</tspan>
    <tspan x="512" dy="19">directly in physical circuits that communicate through</tspan>
    <tspan x="512" dy="19">sparse spikes, enabling event-driven, low-power</tspan>
    <tspan x="512" dy="19">computation. Its canonical unit is the leaky integrate-</tspan>
    <tspan x="512" dy="19">and-fire neuron. The Lu.i board is a low-cost, fully analog</tspan>
    <tspan x="512" dy="19">LIF neuron that can be wired into networks &#8212; but its</tspan>
    <tspan x="512" dy="19">spike rates are noisy and low-resolution, which makes</tspan>
    <tspan x="512" dy="19">functional computation on the hardware a challenge.</tspan>
  </text>

  <!-- RESEARCH PROBLEM (col2) -->
  <text x="512" y="500" class="h" font-size="18">RESEARCH PROBLEM</text>
  <rect x="512" y="511" width="448" height="3" fill="#2AA8BD"/>
  <text x="512" y="540" font-size="13.5" class="body">
    <tspan x="512" dy="0">Can a handful of physical analog neurons control an</tspan>
    <tspan x="512" dy="19">unstable system in real time? Prior work used the LIF</tspan>
    <tspan x="512" dy="19">linear regime for LQR control, but rate imprecision forced</tspan>
    <tspan x="512" dy="19">large neuron populations. We ask whether the threshold</tspan>
    <tspan x="512" dy="19">nonlinearity itself can serve as the computation.</tspan>
  </text>

  <!-- BIG CART-POLE DIAGRAM (spans left panel) -->
  <g filter="url(#shadow)"><rect x="40" y="772" width="920" height="372" rx="12" fill="#ffffff"/></g>
  <text x="62" y="804" font-size="16" font-weight="700" fill="#2B3A5C">The cart-pole system</text>
  <!-- ground -->
  <line x1="110" y1="1066" x2="700" y2="1066" stroke="#9AA4AE" stroke-width="3"/>
  <g stroke="#C2CAD2" stroke-width="2">
    <line x1="120" y1="1066" x2="108" y2="1080"/><line x1="150" y1="1066" x2="138" y2="1080"/><line x1="180" y1="1066" x2="168" y2="1080"/>
    <line x1="210" y1="1066" x2="198" y2="1080"/><line x1="240" y1="1066" x2="228" y2="1080"/><line x1="270" y1="1066" x2="258" y2="1080"/>
    <line x1="300" y1="1066" x2="288" y2="1080"/><line x1="330" y1="1066" x2="318" y2="1080"/><line x1="360" y1="1066" x2="348" y2="1080"/>
    <line x1="390" y1="1066" x2="378" y2="1080"/><line x1="420" y1="1066" x2="408" y2="1080"/><line x1="450" y1="1066" x2="438" y2="1080"/>
    <line x1="480" y1="1066" x2="468" y2="1080"/><line x1="510" y1="1066" x2="498" y2="1080"/><line x1="540" y1="1066" x2="528" y2="1080"/>
    <line x1="570" y1="1066" x2="558" y2="1080"/><line x1="600" y1="1066" x2="588" y2="1080"/><line x1="630" y1="1066" x2="618" y2="1080"/>
    <line x1="660" y1="1066" x2="648" y2="1080"/><line x1="690" y1="1066" x2="678" y2="1080"/>
  </g>
  <!-- origin reference -->
  <line x1="470" y1="1052" x2="470" y2="880" stroke="#C2CAD2" stroke-width="1.6" stroke-dasharray="6 5"/>
  <text x="470" y="872" font-size="12" fill="#9AA4AE" text-anchor="middle">x = 0</text>
  <!-- cart -->
  <rect x="540" y="1000" width="140" height="52" rx="6" fill="#DCEAF2" stroke="#3C72B0" stroke-width="2.5"/>
  <text x="610" y="1033" font-size="22" font-weight="800" fill="#2B3A5C" text-anchor="middle">M</text>
  <circle cx="566" cy="1058" r="12" fill="#3C72B0"/><circle cx="654" cy="1058" r="12" fill="#3C72B0"/>
  <!-- pivot + pole -->
  <line x1="610" y1="1000" x2="610" y2="812" stroke="#C2CAD2" stroke-width="1.6" stroke-dasharray="6 5"/>
  <line x1="610" y1="1000" x2="687" y2="826" stroke="#2B3A5C" stroke-width="6" stroke-linecap="round"/>
  <circle cx="610" cy="1000" r="6" fill="#2B3A5C"/>
  <circle cx="687" cy="826" r="19" fill="#2AA8BD" stroke="#1E8597" stroke-width="2.5"/>
  <text x="687" y="832" font-size="18" font-weight="800" fill="#ffffff" text-anchor="middle">m</text>
  <!-- angle arc -->
  <path d="M 610 952 A 48 48 0 0 1 631 957" fill="none" stroke="#2AA8BD" stroke-width="2.5"/>
  <text x="640" y="948" font-size="20" font-weight="700" fill="#1E8597">&#952;</text>
  <!-- length label -->
  <text x="662" y="912" font-size="18" font-style="italic" fill="#2B3A5C">l</text>
  <!-- gravity -->
  <line x1="687" y1="848" x2="687" y2="894" stroke="#6B7480" stroke-width="2.5" marker-end="url(#ar)"/>
  <text x="700" y="878" font-size="14" fill="#6B7480" font-style="italic">m g</text>
  <!-- force -->
  <line x1="684" y1="1024" x2="780" y2="1024" stroke="#7c3aed" stroke-width="4" marker-end="url(#ar)"/>
  <text x="732" y="1014" font-size="16" font-weight="700" fill="#6d28d9">F</text>
  <!-- displacement x -->
  <line x1="470" y1="1100" x2="610" y2="1100" stroke="#2B3A5C" stroke-width="2" marker-start="url(#ar)" marker-end="url(#ar)"/>
  <line x1="610" y1="1052" x2="610" y2="1108" stroke="#C2CAD2" stroke-width="1.4" stroke-dasharray="5 4"/>
  <text x="540" y="1122" font-size="18" font-style="italic" fill="#2B3A5C" text-anchor="middle">x</text>
  <!-- legend -->
  <g font-size="14" fill="#5C6672">
    <text x="800" y="846"><tspan font-weight="700" fill="#2B3A5C">M</tspan>  cart mass</text>
    <text x="800" y="872"><tspan font-weight="700" fill="#2B3A5C">m</tspan>  pole mass</text>
    <text x="800" y="898"><tspan font-weight="700" font-style="italic" fill="#2B3A5C">l</tspan>   pole length</text>
    <text x="800" y="924"><tspan font-weight="700" fill="#1E8597">&#952;</tspan>  pole angle (from vertical)</text>
    <text x="800" y="950"><tspan font-weight="700" font-style="italic" fill="#2B3A5C">x</tspan>  cart position</text>
    <text x="800" y="976"><tspan font-weight="700" fill="#6d28d9">F</tspan>  applied force (&#177;, bang-bang)</text>
    <text x="800" y="1002"><tspan font-weight="700" fill="#6B7480">g</tspan>  gravitational acceleration</text>
  </g>

  <!-- OBJECTIVES (col1 lower) -->
  <text x="40" y="1186" class="h" font-size="18">OBJECTIVES</text>
  <rect x="40" y="1197" width="448" height="3" fill="#2AA8BD"/>
  <g font-size="13" class="body">
    <circle cx="54" cy="1224" r="13" fill="#2AA8BD"/><text x="54" y="1229" font-size="13" font-weight="700" fill="#fff" text-anchor="middle">1</text>
    <text x="78" y="1228">Deploy a trained network on physical Lu.i LIF neurons.</text>
    <circle cx="54" cy="1262" r="13" fill="#2AA8BD"/><text x="54" y="1267" font-size="13" font-weight="700" fill="#fff" text-anchor="middle">2</text>
    <text x="78" y="1266">Use the firing threshold as a binary sign() activation.</text>
    <circle cx="54" cy="1300" r="13" fill="#2AA8BD"/><text x="54" y="1305" font-size="13" font-weight="700" fill="#fff" text-anchor="middle">3</text>
    <text x="78" y="1304">Rate-encode the state and decode 1-bit firing decisions.</text>
  </g>

  <!-- REFERENCES (col2 lower) -->
  <text x="512" y="1186" class="h" font-size="18">REFERENCES</text>
  <rect x="512" y="1197" width="448" height="3" fill="#2AA8BD"/>
  <g font-size="11.5" fill="#6B7480">
    <text x="512" y="1222">1. Stradmann et al. (2025) Trends Neurosci. Educ. 38, 100248.</text>
    <text x="512" y="1244">2. Banerjee et al. (2025) Neuromorph. Comput. Eng. 5, 044006.</text>
    <text x="512" y="1266">3. Maass (1997) Neural Networks 10(9), 1659.</text>
    <text x="512" y="1288">4. Mead (1990) Proc. IEEE 78(10), 1629.</text>
    <text x="512" y="1310">5. Barto, Sutton &amp; Anderson (1983) IEEE SMC-13, 834.</text>
  </g>

  <!-- =====================================================================
       RIGHT  A1  PANEL  (x 1040 .. 1960)
       columns: col3 1040-1488 , col4 1512-1960
  ====================================================================== -->

  <!-- METHODS & TECHNIQUES -->
  <text x="1040" y="300" class="h" font-size="18">METHODS &amp; TECHNIQUES</text>
  <rect x="1040" y="311" width="920" height="3" fill="#2AA8BD"/>
  <text x="1040" y="340" font-size="13.5" class="body">
    <tspan x="1040" dy="0">A fully connected 3&#8211;3&#8211;1 network of Lu.i neurons. The</tspan>
    <tspan x="1040" dy="19">cart-pole state variables are rate-encoded about a 10 Hz</tspan>
    <tspan x="1040" dy="19">baseline (v &#8614; 10 + 5v Hz) and delivered as pulse trains.</tspan>
    <tspan x="1040" dy="19">Each neuron sums its synaptic inputs (potentiometer</tspan>
    <tspan x="1040" dy="19">weights) and fires when its membrane crosses threshold;</tspan>
    <tspan x="1040" dy="19">this firing is read as a &#177;1 sign activation. Hidden</tspan>
    <tspan x="1040" dy="19">decisions are re-encoded to drive the output neuron,</tspan>
    <tspan x="1040" dy="19">whose sign sets a two-level (bang-bang) force. Weights are</tspan>
    <tspan x="1040" dy="19">trained offline in a simulator and transferred to the boards;</tspan>
    <tspan x="1040" dy="19">a baseline calibration and a parallel software reference</tspan>
    <tspan x="1040" dy="19">validate the analog hardware in real time.</tspan>
  </text>

  <!-- neuron inset (col4) -->
  <g filter="url(#shadow)"><rect x="1512" y="326" width="448" height="232" rx="10" fill="#F4F8FA"/></g>
  <text x="1534" y="354" font-size="14" font-weight="700" fill="#2B3A5C">Inside one neuron &#8212; sign() = threshold</text>
  <line x1="1540" y1="392" x2="1540" y2="520" stroke="#9AA4AE" stroke-width="2"/>
  <line x1="1540" y1="520" x2="1900" y2="520" stroke="#9AA4AE" stroke-width="2"/>
  <text x="1524" y="396" font-size="11" fill="#9AA4AE">V</text>
  <line x1="1540" y1="408" x2="1900" y2="408" stroke="#ef4444" stroke-width="1.6" stroke-dasharray="6 5"/>
  <text x="1860" y="402" font-size="11" fill="#ef4444">V_th</text>
  <polyline points="1548,518 1640,408 1640,518 1732,408 1732,518 1824,452" fill="none" stroke="#2563EB" stroke-width="2.5"/>
  <line x1="1640" y1="408" x2="1640" y2="382" stroke="#2B3A5C" stroke-width="2.5"/>
  <line x1="1732" y1="408" x2="1732" y2="382" stroke="#2B3A5C" stroke-width="2.5"/>
  <text x="1548" y="544" font-size="12" fill="#1E8597" font-weight="600">crosses V_th &#8594; spike = +1   &#183;   else silent = &#8722;1</text>

  <!-- BIG PIPELINE SCHEMATIC (spans right panel) -->
  <g filter="url(#shadow)"><rect x="1040" y="588" width="920" height="232" rx="12" fill="#ffffff"/></g>
  <text x="1062" y="618" font-size="15" font-weight="700" fill="#2B3A5C">Signal pipeline</text>
  <!-- inputs -->
  <g fill="#2AA8BD"><circle cx="1086" cy="668" r="6"/><circle cx="1086" cy="710" r="6"/><circle cx="1086" cy="752" r="6"/></g>
  <text x="1086" y="792" font-size="11" fill="#7B8794" text-anchor="middle">&#952;, &#969;, x</text>
  <!-- encode -->
  <rect x="1120" y="648" width="150" height="124" rx="8" fill="#ccfbf1" stroke="#0d9488" stroke-width="2"/>
  <text x="1195" y="700" font-size="13" font-weight="700" fill="#0f766e" text-anchor="middle">encode</text>
  <text x="1195" y="722" font-size="12" fill="#134e4a" text-anchor="middle">10 + 5v Hz</text>
  <!-- edges to hidden -->
  <g stroke="#93c5fd" stroke-width="1.6">
    <line x1="1270" y1="668" x2="1360" y2="668"/><line x1="1270" y1="710" x2="1360" y2="668"/><line x1="1270" y1="752" x2="1360" y2="668"/>
    <line x1="1270" y1="668" x2="1360" y2="710"/><line x1="1270" y1="710" x2="1360" y2="710"/><line x1="1270" y1="752" x2="1360" y2="710"/>
    <line x1="1270" y1="668" x2="1360" y2="752"/><line x1="1270" y1="710" x2="1360" y2="752"/><line x1="1270" y1="752" x2="1360" y2="752"/>
  </g>
  <!-- hidden -->
  <g fill="#DBEAFE" stroke="#2563EB" stroke-width="2.5">
    <circle cx="1386" cy="668" r="24"/><circle cx="1386" cy="710" r="24"/><circle cx="1386" cy="752" r="24"/>
  </g>
  <text x="1386" y="820" font-size="11" fill="#1d4ed8" text-anchor="middle" font-weight="600">hidden &#215;3 (sign)</text>
  <!-- hidden to output -->
  <g stroke="#93c5fd" stroke-width="1.8">
    <line x1="1410" y1="668" x2="1556" y2="710"/><line x1="1410" y1="710" x2="1556" y2="710"/><line x1="1410" y1="752" x2="1556" y2="710"/>
  </g>
  <text x="1483" y="660" font-size="11" fill="#1d4ed8" text-anchor="middle">fire&#8594;+1 / silent&#8594;&#8722;1</text>
  <!-- output -->
  <circle cx="1582" cy="710" r="28" fill="#DBEAFE" stroke="#2563EB" stroke-width="3"/>
  <text x="1582" y="716" font-size="18" font-weight="700" fill="#1d4ed8" text-anchor="middle">y</text>
  <text x="1582" y="772" font-size="11" fill="#1d4ed8" text-anchor="middle">output (sign)</text>
  <line x1="1610" y1="710" x2="1672" y2="710" stroke="#2B3A5C" stroke-width="2.5" marker-end="url(#ar)"/>
  <!-- force -->
  <rect x="1676" y="682" width="180" height="56" rx="8" fill="#ede9fe" stroke="#7c3aed" stroke-width="2"/>
  <text x="1766" y="708" font-size="14" font-weight="700" fill="#6d28d9" text-anchor="middle">sign &#8594; &#177;F</text>
  <text x="1766" y="726" font-size="11" fill="#5b21b6" text-anchor="middle">bang-bang force</text>
  <path d="M1856 710 H1910 V790 H1086 V768" fill="none" stroke="#2B3A5C" stroke-width="2" marker-end="url(#ar)"/>
  <text x="1500" y="806" font-size="11" fill="#7B8794" text-anchor="middle">applied force u = &#177;F &#8594; cart-pole</text>

  <!-- DATA PRESENTATION : 3 bigger time-series plots -->
  <text x="1040" y="864" class="h" font-size="18">DATA PRESENTATION</text>
  <rect x="1040" y="875" width="920" height="3" fill="#2AA8BD"/>

  <g filter="url(#shadow)"><rect x="1040" y="892" width="296" height="208" rx="10" fill="#ffffff"/></g>
  <text x="1058" y="918" font-size="13" font-weight="700" fill="#2B3A5C">Pole angle &#952;(t)</text>
  <line x1="1074" y1="930" x2="1074" y2="1064" stroke="#C9D6DB" stroke-width="1.4"/>
  <line x1="1074" y1="1064" x2="1318" y2="1064" stroke="#C9D6DB" stroke-width="1.4"/>
  <polyline points="1074,952 1102,1046 1130,964 1158,1032 1186,980 1214,1022 1242,992 1270,1010 1298,1000 1318,1003" fill="none" stroke="#2AA8BD" stroke-width="2.4"/>
  <text x="1062" y="997" font-size="10" fill="#9AA4AE" text-anchor="middle" transform="rotate(-90 1062 997)">&#952; [rad]</text>
  <text x="1196" y="1086" font-size="10" fill="#9AA4AE" text-anchor="middle">time [s]</text>

  <g filter="url(#shadow)"><rect x="1352" y="892" width="296" height="208" rx="10" fill="#ffffff"/></g>
  <text x="1370" y="918" font-size="13" font-weight="700" fill="#2B3A5C">Cart position x(t)</text>
  <line x1="1386" y1="930" x2="1386" y2="1064" stroke="#C9D6DB" stroke-width="1.4"/>
  <line x1="1386" y1="1064" x2="1630" y2="1064" stroke="#C9D6DB" stroke-width="1.4"/>
  <polyline points="1386,1054 1420,1000 1456,958 1500,946 1556,954 1630,958" fill="none" stroke="#4569A8" stroke-width="2.4"/>
  <text x="1374" y="997" font-size="10" fill="#9AA4AE" text-anchor="middle" transform="rotate(-90 1374 997)">x [m]</text>
  <text x="1508" y="1086" font-size="10" fill="#9AA4AE" text-anchor="middle">time [s]</text>

  <g filter="url(#shadow)"><rect x="1664" y="892" width="296" height="208" rx="10" fill="#ffffff"/></g>
  <text x="1682" y="918" font-size="13" font-weight="700" fill="#2B3A5C">Control force u(t)</text>
  <line x1="1698" y1="930" x2="1698" y2="1064" stroke="#C9D6DB" stroke-width="1.4"/>
  <line x1="1698" y1="1064" x2="1942" y2="1064" stroke="#C9D6DB" stroke-width="1.4"/>
  <polyline points="1698,1030 1758,1030 1758,952 1818,952 1818,1030 1878,1030 1878,952 1942,952" fill="none" stroke="#6E5AA8" stroke-width="2.4"/>
  <text x="1686" y="997" font-size="10" fill="#9AA4AE" text-anchor="middle" transform="rotate(-90 1686 997)">u = &#177;F</text>
  <text x="1820" y="1086" font-size="10" fill="#9AA4AE" text-anchor="middle">time [s]</text>

  <text x="1040" y="1118" font-size="11.5" fill="#9AA4AE" font-style="italic">Illustrative panels &#8212; replace each with your measured time series (e.g. pole angle, cart position, control force vs. time).</text>

  <!-- RESULTS & DISCUSSION (space for you) -->
  <text x="1040" y="1158" class="h" font-size="18">RESULTS &amp; DISCUSSION</text>
  <rect x="1040" y="1169" width="920" height="3" fill="#2AA8BD"/>
  <rect x="1040" y="1184" width="448" height="120" rx="10" fill="#ffffff" stroke="#D7DEE4" stroke-width="1.5"/>
  <text x="1062" y="1210" font-size="13" font-weight="700" fill="#2B3A5C">Results</text>
  <text x="1062" y="1232" font-size="11.5" fill="#9AA4AE" font-style="italic">Add your key finding here &#8212; e.g. hardware vs.</text>
  <text x="1062" y="1250" font-size="11.5" fill="#9AA4AE" font-style="italic">software decision agreement, balance duration.</text>
  <rect x="1512" y="1184" width="448" height="120" rx="10" fill="#ffffff" stroke="#D7DEE4" stroke-width="1.5"/>
  <text x="1534" y="1210" font-size="13" font-weight="700" fill="#2B3A5C">Discussion</text>
  <text x="1534" y="1232" font-size="11.5" fill="#9AA4AE" font-style="italic">Interpret the result, note limitations (rate</text>
  <text x="1534" y="1250" font-size="11.5" fill="#9AA4AE" font-style="italic">noise, chatter) and outline future work.</text>
  <!-- contact + qr -->
  <rect x="1040" y="1318" width="34" height="34" rx="4" fill="#2B3A5C"/>
  <g fill="#ffffff"><rect x="1045" y="1323" width="7" height="7"/><rect x="1063" y="1323" width="7" height="7"/><rect x="1045" y="1341" width="7" height="7"/><rect x="1056" y="1334" width="5" height="5"/></g>
  <text x="1086" y="1332" font-size="12.5" font-weight="700" fill="#2B3A5C">Read full report &amp; code</text>
  <text x="1086" y="1348" font-size="11.5" fill="#7B8794">Contact: f.surname@students.uu.nl</text>

  <!-- ===== footer (spans both) ===== -->
  <rect x="0" y="1352" width="2000" height="64" fill="#26407E"/>
  <text x="40" y="1390" font-size="14" fill="#C7D6E8">Experimental Research Project (NS-205B) &#183; BSc Physics &#183; Utrecht University &#183; 2026</text>
  <g>
    <circle cx="1000" cy="1384" r="21" fill="none" stroke="#7FCFE0" stroke-width="2"/>
    <text x="1000" y="1381" font-size="9" fill="#9AD9E0" text-anchor="middle" font-weight="700">ERP</text>
    <text x="1000" y="1392" font-size="9" fill="#ffffff" text-anchor="middle" font-weight="700">2026</text>
  </g>
  <text x="1960" y="1390" font-size="14" fill="#C7D6E8" text-anchor="end">www.uu.nl</text>
</svg>
